<svg xmlns="http://www.w3.org/2000/svg" width="1400" height="900" viewBox="0 0 1400 900" role="img" aria-label="AresStack Act III visual">
  <defs>
    <radialGradient id="bg" cx="50%" cy="50%" r="72%"><stop offset="0" stop-color="#15263c"/><stop offset="0.57" stop-color="#070c15"/><stop offset="1" stop-color="#020308"/></radialGradient>
    <radialGradient id="planet" cx="45%" cy="36%" r="65%"><stop offset="0" stop-color="#ffbd77" stop-opacity="0.95"/><stop offset="0.5" stop-color="#b64f2d" stop-opacity="0.6"/><stop offset="1" stop-color="#4a170f" stop-opacity="0.1"/></radialGradient>
    <radialGradient id="blueGlow" cx="35%" cy="58%" r="56%"><stop offset="0" stop-color="#6fd8ff" stop-opacity="0.58"/><stop offset="0.45" stop-color="#1f87d8" stop-opacity="0.21"/><stop offset="1" stop-color="#06111c" stop-opacity="0"/></radialGradient>
    <linearGradient id="blue" x1="0" y1="0" x2="1" y2="0"><stop offset="0" stop-color="#0e3a59" stop-opacity="0.15"/><stop offset="0.55" stop-color="#37b9ff" stop-opacity="0.86"/><stop offset="1" stop-color="#d6f5ff" stop-opacity="0.32"/></linearGradient>
    <linearGradient id="copper" x1="0" y1="0" x2="1" y2="0"><stop offset="0" stop-color="#5d2415" stop-opacity="0.14"/><stop offset="0.55" stop-color="#d76f3a" stop-opacity="0.8"/><stop offset="1" stop-color="#ffd19b" stop-opacity="0.34"/></linearGradient>
    <filter id="glow"><feGaussianBlur stdDeviation="4" result="b"/><feMerge><feMergeNode in="b"/><feMergeNode in="SourceGraphic"/></feMerge></filter>
    <pattern id="grid" width="48" height="48" patternUnits="userSpaceOnUse"><path d="M48 0H0v48" fill="none" stroke="#b5c6d8" stroke-opacity="0.045"/></pattern>
  </defs>
  <rect width="1400" height="900" fill="url(#bg)"/>
  <rect width="1400" height="900" fill="url(#grid)" opacity="0.88"/>

  <g opacity="0.56">
    <circle cx="102" cy="132" r="1.1" fill="#e9f8ff"/><circle cx="218" cy="246" r="1" fill="#ffd2a5"/><circle cx="354" cy="116" r="1.3" fill="#c8eaff"/>
    <circle cx="526" cy="204" r="0.9" fill="#e9f8ff"/><circle cx="706" cy="92" r="1.1" fill="#ffd2a5"/><circle cx="858" cy="176" r="0.9" fill="#c8eaff"/>
    <circle cx="1018" cy="92" r="1.3" fill="#e9f8ff"/><circle cx="1216" cy="256" r="1" fill="#ffd2a5"/><circle cx="1310" cy="124" r="1.1" fill="#e9f8ff"/>
    <circle cx="138" cy="734" r="1" fill="#c8eaff"/><circle cx="328" cy="816" r="1.2" fill="#ffd2a5"/><circle cx="566" cy="748" r="1" fill="#e9f8ff"/>
    <circle cx="820" cy="822" r="1.1" fill="#c8eaff"/><circle cx="1068" cy="746" r="1.4" fill="#ffd2a5"/><circle cx="1296" cy="804" r="1" fill="#e9f8ff"/>
  </g>

  <circle cx="1060" cy="220" r="186" fill="url(#planet)" opacity="0.7"/>
  <circle cx="1016" cy="178" r="46" fill="#ffd19b" opacity="0.14"/>
  <path d="M840 372C960 328 1114 326 1290 386" fill="none" stroke="#ffd19b" stroke-opacity="0.22" stroke-width="2"/>

  <path d="M0 702C250 650 460 684 700 626C936 570 1128 618 1400 552V900H0Z" fill="#06101a" opacity="0.96"/>
  <path d="M0 702C250 650 460 684 700 626C936 570 1128 618 1400 552" fill="none" stroke="#37b9ff" stroke-opacity="0.25" stroke-width="2.5"/>
  <path d="M0 758C260 710 504 750 724 698C930 648 1124 690 1400 628" fill="none" stroke="#d76f3a" stroke-opacity="0.18" stroke-width="1.5"/>

  <g transform="translate(470 510)">
    <circle r="168" fill="url(#blueGlow)" opacity="0.52"/>
    <rect x="-92" y="-72" width="184" height="144" rx="18" fill="#08131f" stroke="#37b9ff" stroke-opacity="0.52" stroke-width="2"/>
    <rect x="-62" y="-42" width="124" height="84" rx="10" fill="#0b1c2d" stroke="#d76f3a" stroke-opacity="0.3" stroke-width="1.2"/>
    <ellipse rx="250" ry="108" fill="none" stroke="#37b9ff" stroke-opacity="0.23" stroke-width="1.8"/>
    <ellipse rx="305" ry="148" fill="none" stroke="#d76f3a" stroke-opacity="0.15" stroke-width="2"/>
    <line x1="-130" y1="-118" x2="130" y2="118" stroke="#37b9ff" stroke-opacity="0.16"/>
    <line x1="-130" y1="118" x2="130" y2="-118" stroke="#37b9ff" stroke-opacity="0.16"/>
  </g>

  <g stroke-linecap="round" filter="url(#glow)" opacity="0.8">
    <path d="M90 306C248 360 300 446 378 494" stroke="url(#blue)" stroke-width="2.4" fill="none"/>
    <path d="M94 486C230 482 306 498 378 518" stroke="url(#blue)" stroke-width="4.8" fill="none"/>
    <path d="M118 666C232 624 300 572 380 542" stroke="url(#blue)" stroke-width="2.8" fill="none"/>
    <path d="M560 492C700 408 848 342 1008 262" stroke="url(#copper)" stroke-width="2.2" fill="none"/>
    <path d="M558 520C742 516 914 490 1256 436" stroke="url(#blue)" stroke-width="3.6" fill="none"/>
    <path d="M554 548C752 632 924 682 1268 718" stroke="url(#blue)" stroke-width="2.4" fill="none"/>
  </g>

  <g filter="url(#glow)">
    <circle cx="214" cy="350" r="4" fill="#37b9ff" opacity="0.62"/><circle cx="294" cy="480" r="4.5" fill="#37b9ff" opacity="0.68"/>
    <circle cx="238" cy="638" r="4" fill="#37b9ff" opacity="0.6"/><circle cx="684" cy="420" r="3.5" fill="#d76f3a" opacity="0.56"/>
    <circle cx="866" cy="376" r="4" fill="#d76f3a" opacity="0.62"/><circle cx="1008" cy="492" r="4.5" fill="#37b9ff" opacity="0.68"/>
    <circle cx="1148" cy="610" r="4" fill="#37b9ff" opacity="0.58"/><circle cx="930" cy="692" r="3.5" fill="#37b9ff" opacity="0.54"/>
  </g>

  <g fill="none" opacity="0.28">
    <path d="M268 294l66-48 78 40-6 96-92 36-68-60z" stroke="#37b9ff"/>
    <path d="M908 608l110-52 102 72-20 120-122 28-90-72z" stroke="#37b9ff"/>
    <path d="M708 252l94-48 100 58-8 114-114 28-80-64z" stroke="#d76f3a"/>
  </g>

  <rect x="9" y="9" width="1382" height="882" fill="none" stroke="#ffffff" stroke-opacity="0.05" stroke-width="18"/>
</svg>
