<svg xmlns="http://www.w3.org/2000/svg" width="1400" height="900" viewBox="0 0 1400 900" role="img" aria-label="AresStack Act I visual">
  <defs>
    <radialGradient id="bg" cx="50%" cy="48%" r="70%">
      <stop offset="0" stop-color="#172033"/>
      <stop offset="0.55" stop-color="#070b13"/>
      <stop offset="1" stop-color="#020308"/>
    </radialGradient>
    <radialGradient id="copperGlow" cx="50%" cy="50%" r="50%">
      <stop offset="0" stop-color="#f4a15f" stop-opacity="0.7"/>
      <stop offset="0.45" stop-color="#b5522c" stop-opacity="0.23"/>
      <stop offset="1" stop-color="#0b0302" stop-opacity="0"/>
    </radialGradient>
    <linearGradient id="copper" x1="0" y1="0" x2="1" y2="1">
      <stop offset="0" stop-color="#572214" stop-opacity="0.25"/>
      <stop offset="0.55" stop-color="#d76f3a" stop-opacity="0.85"/>
      <stop offset="1" stop-color="#ffd19b" stop-opacity="0.35"/>
    </linearGradient>
    <linearGradient id="blue" x1="0" y1="0" x2="1" y2="1">
      <stop offset="0" stop-color="#0e3a59" stop-opacity="0.25"/>
      <stop offset="0.55" stop-color="#37b9ff" stop-opacity="0.7"/>
      <stop offset="1" stop-color="#d6f5ff" stop-opacity="0.28"/>
    </linearGradient>
    <filter id="glow"><feGaussianBlur stdDeviation="4" result="b"/><feMerge><feMergeNode in="b"/><feMergeNode in="SourceGraphic"/></feMerge></filter>
    <pattern id="grid" width="48" height="48" patternUnits="userSpaceOnUse">
      <path d="M48 0H0v48" fill="none" stroke="#b5c6d8" stroke-opacity="0.045"/>
    </pattern>
  </defs>

  <rect width="1400" height="900" fill="url(#bg)"/>
  <rect width="1400" height="900" fill="url(#grid)" opacity="0.9"/>
  <circle cx="700" cy="450" r="360" fill="url(#copperGlow)" opacity="0.55"/>

  <g opacity="0.55">
    <circle cx="108" cy="122" r="1.2" fill="#e9f8ff"/><circle cx="194" cy="248" r="1" fill="#ffd2a5"/>
    <circle cx="308" cy="112" r="1.3" fill="#c8eaff"/><circle cx="478" cy="206" r="0.9" fill="#e9f8ff"/>
    <circle cx="642" cy="98" r="1.1" fill="#ffd2a5"/><circle cx="826" cy="178" r="0.9" fill="#c8eaff"/>
    <circle cx="1016" cy="102" r="1.3" fill="#e9f8ff"/><circle cx="1214" cy="256" r="1" fill="#ffd2a5"/>
    <circle cx="1302" cy="126" r="1.1" fill="#e9f8ff"/><circle cx="118" cy="734" r="1" fill="#c8eaff"/>
    <circle cx="284" cy="806" r="1.2" fill="#ffd2a5"/><circle cx="512" cy="748" r="1" fill="#e9f8ff"/>
    <circle cx="814" cy="820" r="1.1" fill="#c8eaff"/><circle cx="1054" cy="746" r="1.4" fill="#ffd2a5"/>
    <circle cx="1288" cy="804" r="1" fill="#e9f8ff"/>
  </g>

  <g fill="none" transform="translate(700 450)">
    <ellipse rx="510" ry="315" stroke="#d76f3a" stroke-opacity="0.14" stroke-width="3"/>
    <ellipse rx="430" ry="250" stroke="#d76f3a" stroke-opacity="0.22" stroke-width="2"/>
    <ellipse rx="340" ry="188" stroke="#37b9ff" stroke-opacity="0.17" stroke-width="1.6"/>
    <ellipse rx="250" ry="136" stroke="#e9f8ff" stroke-opacity="0.08"/>
  </g>

  <g transform="translate(700 450)">
    <circle r="130" fill="#08101b" stroke="#d76f3a" stroke-opacity="0.48" stroke-width="2.4"/>
    <circle r="94" fill="none" stroke="#37b9ff" stroke-opacity="0.18" stroke-width="1.6"/>
    <path d="M-96-18C-58-64 58-64 96-18C66 18 30 42 0 52C-30 42-66 18-96-18Z" fill="#101925" stroke="#d76f3a" stroke-opacity="0.36"/>
    <path d="M-88 50H88L52 88H-52Z" fill="#0a1421" stroke="#37b9ff" stroke-opacity="0.2"/>
    <line x1="-130" y1="0" x2="130" y2="0" stroke="#d76f3a" stroke-opacity="0.3"/>
    <line x1="0" y1="-130" x2="0" y2="130" stroke="#d76f3a" stroke-opacity="0.22"/>
  </g>

  <g stroke-linecap="round" filter="url(#glow)" opacity="0.72">
    <path d="M138 190C318 136 500 180 626 254" stroke="url(#copper)" stroke-width="2.2" fill="none"/>
    <path d="M1260 704C1040 756 870 704 735 628" stroke="url(#copper)" stroke-width="2.5" fill="none"/>
    <path d="M164 690C362 630 522 666 654 596" stroke="url(#blue)" stroke-width="1.7" fill="none"/>
    <path d="M1238 202C1070 260 920 242 766 318" stroke="url(#blue)" stroke-width="1.7" fill="none"/>
  </g>

  <g stroke="#d76f3a" stroke-opacity="0.2" fill="none">
    <path d="M278 296l60-60 90 24 34 92-66 68-94-28z"/>
    <path d="M1018 318l78-32 76 62-20 102-102 34-68-64z"/>
  </g>
  <g stroke="#37b9ff" stroke-opacity="0.18" fill="none">
    <path d="M362 592l74-40 84 64-24 96-106 12-64-70z"/>
  </g>

  <g filter="url(#glow)">
    <circle cx="235" cy="365" r="5" fill="#d76f3a" opacity="0.75"/>
    <circle cx="368" cy="444" r="4" fill="#d76f3a" opacity="0.6"/>
    <circle cx="1042" cy="376" r="5" fill="#d76f3a" opacity="0.72"/>
    <circle cx="1112" cy="508" r="4" fill="#37b9ff" opacity="0.58"/>
    <circle cx="312" cy="645" r="4" fill="#37b9ff" opacity="0.64"/>
    <circle cx="520" cy="320" r="3.5" fill="#37b9ff" opacity="0.52"/>
    <circle cx="910" cy="626" r="3.5" fill="#d76f3a" opacity="0.58"/>
    <circle cx="760" cy="218" r="3.5" fill="#37b9ff" opacity="0.44"/>
  </g>

  <rect x="9" y="9" width="1382" height="882" fill="none" stroke="#ffffff" stroke-opacity="0.05" stroke-width="18"/>
</svg>
